<svg width="88" height="37" fill="none" xmlns="http://www.w3.org/2000/svg"><path d="M14.146.7c3.569 0 7.01 1.34 9.495 3.824 2.549 2.485 3.95 5.735 3.95 9.24v21.602H.702V13.764c0-3.505 1.402-6.755 3.95-9.24C7.138 2.04 10.515.701 14.147.701Zm0-.7c-3.76 0-7.328 1.402-10.004 4.014C1.466 6.627 0 10.068 0 13.764v22.303h28.293V13.764c0-3.696-1.466-7.137-4.142-9.686C21.474 1.402 17.906 0 14.146 0Z" fill="#fff"/><path d="m22.472 5.804-.637-.637c-2.103-1.848-4.78-2.804-7.647-2.804-3.122 0-6.117 1.211-8.284 3.441a11.617 11.617 0 0 0-3.44 8.284v19.5h23.45V14.151c0-3.186-1.275-6.117-3.442-8.348ZM18.84 32.376c-1.083.383-2.294.574-3.505.574H6.86v-3.887a4.46 4.46 0 0 1-.51-.637c-1.465-1.912-2.23-4.27-2.23-6.691v-7.328c0-2.868 1.083-5.544 2.995-7.647.255 0 .574 0 .892.064 1.976.191 4.652.892 6.946 2.485 2.039 1.402 4.524 3.95 4.524 8.093v14.783c-.191.064-.382.128-.637.191Z" fill="#fff"/><path d="M15.017 9.31c-2.294-1.529-4.97-2.293-6.945-2.485-.319 0-.638-.063-.892-.063-1.912 2.103-2.995 4.779-2.995 7.646v7.328c0 2.422.764 4.78 2.23 6.691.191.191.318.446.51.637v3.888H15.4c1.21 0 2.357-.192 3.504-.574.255-.064.446-.127.701-.255V17.34c-.063-4.142-2.549-6.627-4.588-8.03ZM7.562 32.25v-2.485c1.147 1.084 2.485 1.976 3.95 2.486h-3.95Zm11.279-.573c-1.084.382-2.294.574-3.505.574-2.804 0-5.416-1.084-7.456-3.123l-.382-.382a4.812 4.812 0 0 1-.7-.892 10.275 10.275 0 0 1-2.04-6.181v-7.265c0-2.548.956-5.034 2.613-6.945 4.46.19 11.406 3.25 11.406 9.877v14.337h.064Z" fill="#fff"/><path d="M11.468 23.729a.411.411 0 0 1-.383-.382v-6.5a3.127 3.127 0 0 1 3.123-3.122 3.127 3.127 0 0 1 3.122 3.122.411.411 0 0 1-.382.382.411.411 0 0 1-.383-.382c0-1.275-1.083-2.358-2.357-2.358-1.275 0-2.358 1.083-2.358 2.358v6.5a.411.411 0 0 1-.382.382Z" fill="#fff"/><path d="M15.355 18.694a.411.411 0 0 1-.382-.382.736.736 0 0 0-.765-.765.736.736 0 0 0-.765.765.411.411 0 0 1-.382.382.411.411 0 0 1-.382-.382c0-.892.7-1.593 1.593-1.593.892 0 1.593.7 1.593 1.593-.128.191-.319.382-.51.382ZM11.467 23.725a2.121 2.121 0 0 1-2.103-2.102c0-.192.192-.383.383-.383.19 0 .382.191.382.383 0 .7.574 1.274 1.274 1.274.701 0 1.275-.573 1.275-1.274 0-.192.191-.383.382-.383s.383.191.383.383a1.976 1.976 0 0 1-1.976 2.102ZM9.238 19.331c-.128 0-.191-.063-.255-.127l-1.72-1.72v1.465a.411.411 0 0 1-.383.382c-.191 0-.446-.19-.446-.446v-2.357a.43.43 0 0 1 .255-.383c.191-.063.318-.063.446.064l1.72 1.72V16.91c0-.191.192-.382.383-.382.19 0 .382.19.382.382v1.975a.43.43 0 0 1-.255.383c0 .063-.064.063-.127.063ZM11.405 17.292a.411.411 0 0 1-.382-.382c0-.064 0-1.657-1.084-1.657a.411.411 0 0 1-.382-.382c0-.192.191-.383.382-.383 1.466 0 1.848 1.593 1.848 2.422a.411.411 0 0 1-.382.382ZM42.056 25.935c-.318 0-.573-.19-.7-.51-.128-.318-.192-.637-.32-.955-.127-.51-.318-.956-.445-1.466h-4.652l-.765 2.421c-.063.32-.382.51-.7.51-.51 0-.829-.446-.701-.955.254-.893.573-1.657.828-2.422.319-1.02.7-2.04 1.02-2.931.318-.956.637-1.784.955-2.676l.765-1.912a.958.958 0 0 1 .892-.637c.382 0 .765.255.892.637l.765 1.912c.318.828.637 1.72.956 2.676.318.956.637 1.912 1.02 2.931.254.765.509 1.593.828 2.422.127.445-.192.955-.638.955Zm-1.848-4.27c-.318-.955-.637-1.91-.955-2.803-.319-.892-.638-1.784-.956-2.612-.319.828-.701 1.72-.956 2.612-.319.892-.637 1.848-.956 2.804h3.823Zm7.01-7.327c1.465 0 2.549.319 3.313.892.765.637 1.147 1.53 1.147 2.74 0 .637-.127 1.21-.318 1.72-.191.447-.51.829-.892 1.147-.383.32-.892.51-1.466.638a8.832 8.832 0 0 1-1.912.19h-1.147v3.57c0 .382-.318.7-.7.7a.707.707 0 0 1-.702-.7V15.42c0-.51.383-.956.829-1.02.191 0 .319-.063.51-.063h1.338Zm.127 1.402c-.637 0-1.083 0-1.402.063v4.525h1.084c.51 0 .956-.064 1.338-.128a2.814 2.814 0 0 0 1.02-.382c.318-.191.51-.382.637-.701.127-.319.19-.7.19-1.147 0-.446-.063-.828-.254-1.083s-.382-.51-.637-.701a2.235 2.235 0 0 0-.892-.383c-.319-.063-.701-.063-1.084-.063Zm6.181 9.176V15.42c0-.573.446-1.02 1.02-1.02h4.588c.382 0 .7.32.7.702v.063c0 .383-.318.701-.7.701h-4.142v3.441h3.632c.382 0 .701.319.701.701 0 .383-.319.701-.7.701h-3.633v3.95h4.524c.383 0 .701.32.701.702v.064a.707.707 0 0 1-.7.7h-4.971c-.574-.19-1.02-.637-1.02-1.21Zm16.122 1.02a.7.7 0 0 1-.637-.383 14.572 14.572 0 0 1-.574-1.02c-.255-.51-.573-1.02-.892-1.593a23.224 23.224 0 0 0-1.02-1.656c-.382-.574-.7-1.084-1.019-1.657-.319-.51-.7-1.02-1.02-1.466-.318-.446-.637-.892-.892-1.21v8.283c0 .383-.318.701-.7.701a.707.707 0 0 1-.701-.7V15.165c0-.382.318-.7.7-.7h.128c.191 0 .382.063.573.254.383.51.829 1.083 1.275 1.657.51.765 1.083 1.466 1.593 2.294.51.828 1.02 1.53 1.465 2.294.447.765.829 1.402 1.147 1.975v-7.774c0-.382.32-.7.701-.7.383 0 .701.318.701.7v10.068c0 .383-.318.701-.7.701h-.128Zm3.314-.765V15.166c0-.382.318-.7.7-.7h4.78c.382 0 .7.318.7.7 0 .383-.318.701-.7.701h-4.079v3.441h3.569c.382 0 .7.319.7.701 0 .383-.318.701-.7.701h-3.569v4.588c0 .382-.318.701-.7.701a.829.829 0 0 1-.701-.828ZM88 15.103c0 .382-.319.7-.701.7H84.75v9.368a.707.707 0 0 1-.7.7.707.707 0 0 1-.702-.7v-9.367H80.8a.707.707 0 0 1-.7-.701c0-.383.318-.701.7-.701h6.5c.382.063.701.318.701.7Z" fill="#fff"/></svg>